<?xml version="1.0" standalone="no"?>
<!DOCTYPE svg PUBLIC "-//W3C//DTD SVG 20010904//EN"
 "http://www.w3.org/TR/2001/REC-SVG-20010904/DTD/svg10.dtd">
<svg version="1.0" xmlns="http://www.w3.org/2000/svg"
 width="200.000000pt" height="200.000000pt" viewBox="0 0 200.000000 200.000000"
 preserveAspectRatio="xMidYMid meet">

<g transform="translate(0.000000,200.000000) scale(0.100000,-0.100000)"
fill="#000000" stroke="none">
<path d="M1141 1603 c50 -79 71 -163 77 -300 l4 -123 -61 0 c-46 0 -73 6 -109
25 -63 33 -75 45 -161 152 -92 115 -130 137 -240 136 -53 0 -93 -7 -133 -22
-61 -24 -71 -36 -39 -46 26 -8 80 -70 97 -111 8 -19 18 -63 23 -99 19 -135
105 -256 221 -313 49 -24 66 -27 160 -27 97 0 109 2 153 28 57 33 100 96 125
179 13 45 23 60 47 71 112 55 277 304 301 455 l7 42 -52 0 c-47 0 -51 -2 -51
-24 0 -82 -95 -288 -168 -363 l-47 -48 -6 125 c-6 121 -13 161 -45 263 l-16
47 -59 0 -59 0 31 -47z m-433 -189 c39 -27 23 -84 -23 -84 -12 0 -26 5 -33 12
-18 18 -15 65 6 77 23 14 24 14 50 -5z"/>
<path d="M662 1378 c2 -15 10 -23 23 -23 30 0 27 39 -3 43 -20 3 -23 0 -20
-20z"/>
<path d="M1334 1613 c18 -124 16 -185 -10 -312 -9 -47 76 127 91 186 8 32 15
81 15 110 l0 53 -51 0 -51 0 6 -37z"/>
<path d="M1100 365 l0 -255 35 0 35 0 0 255 0 255 -35 0 -35 0 0 -255z"/>
<path d="M520 350 l0 -240 35 0 35 0 0 110 0 110 45 0 45 0 0 -110 0 -110 35
0 35 0 0 240 0 240 -35 0 -35 0 0 -100 0 -100 -45 0 -45 0 0 100 0 100 -35 0
-35 0 0 -240z"/>
<path d="M864 488 c-25 -12 -44 -48 -44 -83 0 -21 5 -25 29 -25 25 0 30 5 33
26 3 31 28 50 52 41 12 -5 16 -19 16 -55 0 -46 -2 -51 -31 -63 -48 -19 -86
-56 -99 -94 -31 -93 47 -169 120 -118 17 12 25 13 28 5 2 -7 15 -12 28 -12
l24 0 0 170 c0 168 0 171 -25 195 -18 19 -34 25 -67 24 -24 0 -53 -5 -64 -11z
m86 -262 c0 -55 -3 -64 -20 -69 -24 -6 -50 17 -50 44 0 26 26 76 42 82 26 11
28 6 28 -57z"/>
<path d="M1288 486 c-33 -25 -48 -81 -48 -178 0 -112 12 -160 47 -188 31 -24
80 -26 111 -4 44 31 56 71 56 189 0 117 -13 163 -53 185 -27 14 -93 12 -113
-4z m86 -52 c3 -9 6 -71 6 -139 0 -113 -2 -125 -19 -135 -16 -8 -23 -6 -35 12
-19 26 -23 226 -6 259 13 23 46 25 54 3z"/>
</g>
</svg>
